{"title":"Chorok mulkogi een Fish (1997)","uid":11173606,"size":2047261278,"categoryP":"video","categoryS":"movies","magnet":"?xt=urn:btih:619c39a0802ac58768f05c5191ddacd358a0b25b&amp;dn=Chorok+mulkogi+een+Fish+%281997%29&amp;tr=udp%3A%2F%2Ftracker.openbittorrent.com%3A80&amp;tr=udp%3A%2F%2Fopen.demonii.com%3A1337&amp;tr=udp%3A%2F%2Ftracker.coppersurfer.tk%3A6969&amp;tr=udp%3A%2F%2Fexodus.desync.com%3A6969","seeders":2,"leechers":0,"uploader":"wesleybl","files":1,"time":1412737075,"description":"Director: Chang-dong Lee\n\nMak Dong has just been released from the army and is on his way home, when he helps out a woman on the train. A couple of guys are hassling her, and he steps in gets his ass kicked and gets booted off the train. She calls him, because she collected his luggage and they agree to meet. It turns out she is a mobster's girlfriend and she gets him a job with the gang. Meanwhile his real family consists of 3 brothers, one is a wife beating detective, the second is severely handicapped and happy while the third sells eggs. He is still getting his ass kicked on a regular basis but the mob boss Bae Tse-Yong, takes him into the family and allows his to call him &quot;Big Brother&quot;. Apparently this is a big thing among Korean mobsters. Now he's got two families and can't seem to handle either of them but one of them is going to be the death of him.\n\n\nVideo\nID : 1\nFormat : AVC\nFormat/Info : Advanced Video Codec\nFormat profile : &lt;a class=&quot;__cf_email__&quot; href=&quot;/cdn-cgi/l/email-protection&quot; data-cfemail=&quot;4800212f2008047c6679&quot;&gt;[email&amp;#160;protected]&lt;/a&gt;&lt;script cf-hash='f9e31' type=&quot;text/javascript&quot;&gt;\n/* &lt;![CDATA[ */!function(){try{var t=&quot;currentScript&quot;in document?document.currentScript:function(){for(var t=document.getElementsByTagName(&quot;script&quot;),e=t.length;e--;)if(t[e].getAttribute(&quot;cf-hash&quot;))return t[e]}();if(t&amp;&amp;t.previousSibling){var e,r,n,i,c=t.previousSibling,a=c.getAttribute(&quot;data-cfemail&quot;);if(a){for(e=&quot;&quot;,r=parseInt(a.substr(0,2),16),n=2;a.length-n;n+=2)i=parseInt(a.substr(n,2),16)^r,e+=String.fromCharCode(i);e=document.createTextNode(e),c.parentNode.replaceChild(e,c)}}}catch(u){}}();/* ]]&gt; */&lt;/script&gt;\nFormat settings, CABAC : Yes\nFormat settings, ReFrames : 4 frames\nCodec ID : V_MPEG4/ISO/AVC\nDuration : 1h 51mn\nBit rate : 2 000 Kbps\nWidth : 718 pixels\nHeight : 460 pixels\nDisplay aspect ratio : 1.85:1\nOriginal display aspect ratio : 1.85:1\nFrame rate mode : Constant\nFrame rate : 23.976 fps\nColor space : YUV\nChroma subsampling : 4:2:0\nBit depth : 8 bits\nScan type : Progressive\nBits/(Pixel*Frame) : 0.253\nStream size : 1.52 GiB (80%)\nWriting library : x264 core 130 r2273 b3065e6\nLanguage : English\nDefault : Yes\nForced : No\nColor primaries : BT.601 NTSC\nTransfer characteristics : BT.709\nMatrix coefficients : BT.601\n\nAudio\nID : 2\nFormat : AC-3\nFormat/Info : Audio Coding 3\nMode extension : CM (complete main)\nFormat settings, Endianness : Big\nCodec ID : A_AC3\nDuration : 1h 51mn\nBit rate mode : Constant\nBit rate : 448 Kbps\nChannel(s) : 6 channels\nChannel positions : Front: L C R, Side: L R, LFE\nSampling rate : 48.0 KHz\nBit depth : 16 bits\nCompression mode : Lossy\nStream size : 356 MiB (18%)\nLanguage : Korean\nDefault : Yes\nForced : No\n\nText #1\nID : 3\nFormat : VobSub\nCodec ID : S_VOBSUB\nCodec ID/Info : The same subtitle format used on DVDs\nLanguage : English\nDefault : No\nForced : No\n\nText #2\nID : 4\nFormat : VobSub\nCodec ID : S_VOBSUB\nCodec ID/Info : The same subtitle format used on DVDs\nLanguage : Korean\nDefault : No\nForced : No","torrent":{"xt":"urn:btih:619c39a0802ac58768f05c5191ddacd358a0b25b","amp;dn":"Chorok+mulkogi+een+Fish+%281997%29","amp;tr":["udp%3A%2F%2Ftracker.openbittorrent.com%3A80","udp%3A%2F%2Fopen.demonii.com%3A1337","udp%3A%2F%2Ftracker.coppersurfer.tk%3A6969","udp%3A%2F%2Fexodus.desync.com%3A6969"],"infoHash":"619c39a0802ac58768f05c5191ddacd358a0b25b","infoHashBuffer":{"type":"Buffer","data":[97,156,57,160,128,42,197,135,104,240,92,81,145,221,172,211,88,160,178,91]},"announce":[],"urlList":[]}}